<svg xmlns="http://www.w3.org/2000/svg" viewBox="0 0 70.9 138.9"><defs><style>.cls-1{fill:#ffcf1e;}.cls-2{fill:#fff;}</style></defs><title>asda</title><g id="Layer_2" data-name="Layer 2"><g id="Layer_1-2" data-name="Layer 1"><polygon class="cls-1" points="70.9 138.9 35.8 120.9 0 138.9 0 0 70.9 0 70.9 138.9"/><path d="M15.5,86l2.6-10h1.4l-3,11.4H14.4L12.1,77.3,9.8,87.4H7.7L4.7,76H6.1L8.7,86,11,76h2Z"/><path d="M22.8,87.4H21.3V76h1.5Z"/><path d="M27.2,77.7v9.7H25.8V76h2l4.9,9.7V76h1.4V87.4h-2Z"/><path d="M38.4,77.7v9.7H37V76h2l4.9,9.7V76h1.4V87.4h-2Z"/><path d="M48.2,76h6.7v1.3H49.7v3.6h4.8v1.3H49.7v3.9h5.2v1.3H48.2Z"/><path d="M61.6,83.3H58.8v4.1H57.3V76h4.3c2.4,0,3.3,1.1,3.3,2.8v1.6A2.34,2.34,0,0,1,63.1,83L66,87.3H64.3Zm.1-6H58.9V82h2.8c1.4,0,1.9-.4,1.9-1.5V78.9C63.5,77.7,63.1,77.3,61.7,77.3Z"/><path class="cls-2" d="M4.7,110c2.5-2.9,3.2-3.6,5.9-6.8,3.5-4.2,3.7-5,3.7-6.7v-1c0-2.2-.6-2.8-4-2.8a20.17,20.17,0,0,0-5.1.8L4.8,91a23.48,23.48,0,0,1,5.7-.9c5.3,0,6.7,1.9,6.7,5.4v.8c0,2.7-.5,3.9-3.9,8-2.5,3-2.8,3.4-5,5.9h9.1v2.5H4.7Z"/><path class="cls-2" d="M35.8,107c0,3.4-1.7,5.9-7,5.9s-7-2.5-7-5.9V96c0-3.4,1.7-5.9,7-5.9s7,2.5,7,5.9Zm-7-14.4c-3.1,0-4.2,1.2-4.2,3.7v10.4c0,2.5,1,3.7,4.2,3.7s4.2-1.2,4.2-3.7V96.3C33,93.8,31.9,92.6,28.8,92.6Z"/><path class="cls-2" d="M40.4,96.2l-1.3-2.3,6-3.5h2.6v22.2H44.8V93.7Z"/><rect x="4.7" y="70.1" width="61.4" height="0.4"/><polygon class="cls-2" points="33.5 50 24.4 42.9 50.5 9.5 59.6 16.7 33.5 50"/><polygon points="26.7 58.7 4.7 41.4 11.5 32.7 33.5 50 26.7 58.7"/><path class="cls-2" d="M13,45l-1.1-.9.5-1.1-1.6-1.3-1,.7-1.1-.9,5.2-3.6L15.3,39Zm-1.3-4,1.1.9,1-2.4Z"/><path class="cls-2" d="M17,43.1l-2.5,3.1-1-.8,3.7-4.8,1.3,1-1,4.5,2.6-3.3,1,.8-3.7,4.8-1.3-1Z"/><path class="cls-2" d="M23.3,46.9l-3,3.8-1.1-.8,3-3.8-1.3-1,.7-1L25.2,47l-.7,1Z"/><path class="cls-2" d="M22.2,52.2l3.7-4.8,1.1.8L23.3,53Z"/><path class="cls-2" d="M25.3,52.1l.7-.9,1.8,1.4-.7.9Z"/><path d="M34.5,44.5A4.54,4.54,0,0,1,33,45.8l-.7-.8a4.89,4.89,0,0,0,1.3-1.2c.4-.6.4-.7,0-1.1s-.5-.4-1.3.3c-1.2,1-1.5.9-2.5.1s-1.1-1.4,0-2.7a8,8,0,0,1,1.3-1.3l.8.8-1.2,1.2c-.4.5-.4.7,0,.9.5.4.5.3,1.2-.3,1.3-1,1.6-.9,2.6-.2C35.4,42.4,35.6,43,34.5,44.5Z"/><path d="M36.4,41.9l-4.8-3.7.8-1.1,3.8,3,1.5-1.9,1,.7Z"/><path d="M42.5,34.1l-.9,1.1-1.1-.5-1.2,1.6.7,1-.9,1.1-3.6-5.2,1.1-1.4Zm-4,1.3.9-1.1-2.4-1Z"/><path d="M44.6,31.5,43.4,33l-5.8-2.4.9-1.1,4.6,2-3-4,.9-1.1Z"/><path d="M46,29.6l-4.8-3.7,2.3-3,1,.7-1.5,2,.9.7,1.4-1.8,1,.7L44.8,27l1,.8,1.5-1.9,1,.7Z"/><path d="M48.8,22.9l-.5.6,1.5,1.2L49,25.8l-4.8-3.7,1.6-2c.9-1.2,1.7-1.2,2.6-.5l.6.4a1.61,1.61,0,0,1,.7,1.6l2.5.1-1,1.3Zm-1.2-2.2c-.4-.3-.6-.3-.9.2l-.7.8,1.4,1.1.7-.9c.4-.5.3-.7-.1-1Z"/><path d="M52.6,18.3,54,19.4l-.8,1.1-1.4-1.1-4.5-1.2.9-1.1,2.9.8-1.5-2.6.9-1.1Z"/><path d="M35.2,62.3l-1.5,1.9-4.9-3.9,1.5-1.9c1-1.2,1.9-1.2,2.6-.7l2.4,1.9C35.9,60.2,36.2,61.1,35.2,62.3Zm-2.9-3.2c-.4-.3-.7-.3-1.1.2l-.6.7,3,2.3.5-.7c.4-.6.3-.9-.1-1.2Z"/><path d="M40.3,55.8,39.4,57l-1.2-.5L37,58.1l.8,1-.9,1.2-3.8-5.4,1.2-1.5Zm-4.1,1.3.9-1.1-2.5-1.1Z"/><path d="M40.8,52.3l1.4,1.1-.9,1.1-1.4-1.1-4.7-1.2.9-1.2,3,.9-1.6-2.7.9-1.2Z"/><path class="cls-2" d="M48.1,45.8l-.5.6L46.1,46l-1.6,2.1.9,1.3-.5.6-3.6-5.6.7-.9ZM42,44.4l2,3,1.4-1.8Z"/><path class="cls-2" d="M51.2,40.6,47.8,36l.5-.6,3.9,5.2-.7.9-5.2-2.4,3.6,4.5-.7.9-5.9-2.6.5-.6L49,43.6l-3.5-4.4.7-.9Z"/><path class="cls-2" d="M56.6,35l-.5.6-1.5-.5L53,37.2l.9,1.3-.5.6-3.6-5.6.7-.9Zm-6.1-1.4,2,3,1.4-1.8Z"/><path class="cls-2" d="M56.9,30.9,56,32.1l1.8,1.4-.5.6-4.9-3.9,1.5-1.9c.8-1.1,1.6-1.1,2.3-.5l.7.6a1.31,1.31,0,0,1,.5,1.7l2.9.2-.6.7Zm-2.6-2-1,1.2,2,1.6,1-1.2c.5-.6.5-1,0-1.3l-.7-.6C55.1,28.2,54.8,28.3,54.3,28.9Z"/><path class="cls-2" d="M57.3,23.9a1.75,1.75,0,0,1,2.7-.5l2.1,1.7c.8.6,1.1,1.5.2,2.7l-1.4,1.7L56,25.6Zm3.5,4.5.8-1.1c.6-.8.4-1.2-.1-1.7l-2-1.6c-.6-.5-1.1-.5-1.6.3L57,25.4Z"/><path class="cls-2" d="M65.5,23.8a5.71,5.71,0,0,1-1.4,1.3l-.4-.5A7.41,7.41,0,0,0,65,23.4c.6-.8.5-1.1,0-1.6-.7-.5-.7-.6-1.8.3s-1.5.9-2.6.1c-.9-.7-1-1.4,0-2.6a6.81,6.81,0,0,1,1.2-1.2l.5.5a6.28,6.28,0,0,0-1.1,1.2c-.6.8-.6,1.1,0,1.5s.7.6,1.7-.2c1.4-1.1,1.6-1,2.6-.2C66.2,21.8,66.5,22.4,65.5,23.8Z"/><path class="cls-2" d="M52.6,90.4H66.2v2.4L57,112.6H54.1L63.2,93H52.6Z"/></g></g></svg>