<svg xmlns="http://www.w3.org/2000/svg" xmlns:xlink="http://www.w3.org/1999/xlink" version="1.1" id="logo" x="0px" y="0px" width="268px" height="48px" viewBox="0 0 268 48" enable-background="new 0 0 268 48" xml:space="preserve"><path d="M23 1C10.3 1 0 11.3 0 24s10.3 23 23 23s23-10.3 23-23C45.9 11.3 35.6 1 23 1" class="branding__circle"/><path d="M54.3 11.4c0.8-0.1 1.7-0.2 2.5-0.2s1.7 0.1 2.5 0.2V21h8.2v-9.6c0.8-0.1 1.7-0.2 2.5-0.2s1.7 0.1 2.5 0.2 v24.5c-0.9 0.1-1.7 0.2-2.5 0.2s-1.7-0.1-2.5-0.2V25.3h-8.2v10.6c-0.9 0.1-1.7 0.2-2.5 0.2s-1.7-0.1-2.5-0.2V11.4z" class="branding__text"/><path d="M87.4 32.2c3.5 0 5.3-2.8 5.3-8.5c0-2.8-0.4-4.9-1.3-6.3s-2.2-2.1-4-2.1c-3.6 0-5.4 2.8-5.4 8.5 C82 29.4 83.8 32.2 87.4 32.2 M87.4 36.3c-1.8 0-3.4-0.3-4.8-1c-1.3-0.6-2.4-1.5-3.3-2.6c-0.9-1.1-1.5-2.5-1.9-4s-0.6-3.2-0.6-5 s0.2-3.5 0.6-5.1s1.1-2.9 1.9-4c0.9-1.1 2-2 3.3-2.7c1.3-0.6 2.9-1 4.8-1c1.8 0 3.4 0.3 4.8 1c1.3 0.6 2.4 1.5 3.3 2.7 c0.9 1.1 1.5 2.5 1.9 4c0.4 1.6 0.6 3.2 0.6 5.1c0 1.8-0.2 3.5-0.6 5s-1.1 2.9-1.9 4c-0.9 1.1-2 2-3.3 2.6 C90.8 36 89.2 36.3 87.4 36.3" class="branding__text"/><path d="M107.1 23.9c0.3 0 0.5 0.1 0.8 0.1h0.9c0.6 0 1.1-0.1 1.7-0.2c0.5-0.1 1-0.4 1.5-0.7c0.4-0.3 0.8-0.8 1-1.3 c0.2-0.6 0.4-1.2 0.4-2.1c0-0.8-0.1-1.6-0.4-2.1c-0.3-0.6-0.6-1-1-1.4s-0.9-0.6-1.5-0.8c-0.5-0.1-1.1-0.2-1.7-0.2 c-0.3 0-0.5 0-0.7 0s-0.5 0-0.9 0.1v8.6H107.1z M102.1 11.3c1-0.1 2.1-0.2 3.2-0.2c1.1-0.1 2.2-0.1 3.2-0.1c1.1 0 2.3 0.1 3.5 0.3 s2.2 0.7 3.2 1.3c0.9 0.6 1.7 1.5 2.3 2.6c0.6 1.1 0.9 2.6 0.9 4.3c0 1.8-0.3 3.2-0.9 4.3c-0.6 1.1-1.4 2-2.3 2.6s-2 1.1-3.1 1.3 c-1.1 0.2-2.3 0.3-3.4 0.3c-0.3 0-0.6 0-0.8 0c-0.3 0-0.5 0-0.7-0.1v7.9c-0.4 0.1-0.9 0.1-1.3 0.1s-0.8 0-1.2 0c-0.4 0-0.8 0-1.2 0 c-0.4 0-0.9-0.1-1.3-0.1L102.1 11.3L102.1 11.3z" class="branding__text"/><path d="M122 11.4h14c0.1 0.7 0.2 1.4 0.2 2.1c0 0.8-0.1 1.5-0.2 2.2h-9V21h7.1c0.1 0.7 0.2 1.4 0.2 2.1 s-0.1 1.4-0.2 2.2H127v6.5h9.2c0.1 0.7 0.2 1.4 0.2 2.1c0 0.8-0.1 1.5-0.2 2.2H122V11.4z" class="branding__text"/><path d="M161.6 11.4c0.4-0.1 0.9-0.1 1.3-0.1c0.4 0 0.8 0 1.3 0c0.4 0 0.8 0 1.2 0s0.8 0.1 1.3 0.1v12.7 c0 1.4 0.1 2.6 0.2 3.6c0.1 1 0.3 1.8 0.6 2.5c0.3 0.6 0.7 1.1 1.3 1.4s1.3 0.5 2.2 0.5s1.6-0.2 2.2-0.5c0.5-0.3 1-0.8 1.3-1.4 s0.5-1.5 0.6-2.5s0.2-2.2 0.2-3.6V11.4c0.5-0.1 0.9-0.1 1.3-0.1c0.4 0 0.8 0 1.2 0s0.8 0 1.2 0s0.8 0.1 1.3 0.1v13.8 c0 1.7-0.1 3.2-0.4 4.6c-0.3 1.4-0.8 2.6-1.5 3.5c-0.7 1-1.7 1.7-2.8 2.3c-1.2 0.5-2.7 0.8-4.5 0.8s-3.3-0.3-4.5-0.8 s-2.1-1.3-2.8-2.3s-1.2-2.2-1.5-3.5c-0.3-1.4-0.4-2.9-0.4-4.6V11.4H161.6z" class="branding__text"/><path d="M189.1 24.6c-0.8-0.3-1.5-0.6-2.1-1s-1.1-0.8-1.6-1.3c-0.4-0.5-0.8-1.1-1-1.8c-0.2-0.7-0.4-1.5-0.4-2.5 c0-1.2 0.2-2.2 0.6-3.1c0.4-0.9 1-1.6 1.7-2.2c0.7-0.6 1.6-1.1 2.6-1.4c1-0.3 2.2-0.5 3.4-0.5s2.2 0.1 3.3 0.3 c1 0.2 2.1 0.5 3.2 0.9c-0.1 1.3-0.5 2.6-1.1 3.9c-0.3-0.1-0.7-0.3-1-0.4c-0.4-0.1-0.7-0.3-1.1-0.3c-0.4-0.1-0.8-0.2-1.3-0.2 c-0.5-0.1-1.1-0.1-1.7-0.1c-0.4 0-0.8 0-1.2 0.1s-0.8 0.2-1.1 0.4s-0.6 0.4-0.8 0.8s-0.3 0.8-0.3 1.4c0 0.5 0.1 0.8 0.2 1.1 c0.2 0.3 0.4 0.6 0.6 0.8c0.3 0.2 0.6 0.4 0.9 0.5c0.3 0.1 0.7 0.3 1 0.4l2 0.8c0.9 0.3 1.6 0.7 2.4 1.1c0.7 0.4 1.3 0.8 1.8 1.3 s0.9 1.2 1.1 1.9c0.3 0.8 0.4 1.7 0.4 2.8c0 1.2-0.2 2.2-0.6 3.2c-0.4 1-1 1.8-1.8 2.5s-1.8 1.2-3 1.6c-1.2 0.4-2.5 0.6-4 0.6 c-0.8 0-1.4 0-2-0.1c-0.6 0-1.2-0.1-1.7-0.2c-0.5-0.1-1.1-0.2-1.6-0.4s-1.1-0.4-1.6-0.6c0.1-0.7 0.2-1.3 0.4-2.1 c0.2-0.7 0.4-1.4 0.6-2.2c1 0.4 1.9 0.7 2.7 0.9c0.8 0.2 1.7 0.3 2.7 0.3c1.4 0 2.6-0.3 3.4-0.8c0.8-0.5 1.2-1.3 1.2-2.4 c0-0.5-0.1-1-0.3-1.4s-0.4-0.7-0.8-0.9c-0.3-0.3-0.7-0.5-1-0.6c-0.4-0.2-0.8-0.3-1.2-0.5L189.1 24.6z" class="branding__text"/><path d="M208.2 15.6h-6.1c-0.1-0.7-0.2-1.4-0.2-2.2c0-0.7 0.1-1.4 0.2-2.1h17.2c0.1 0.7 0.2 1.4 0.2 2.1 c0 0.8-0.1 1.5-0.2 2.2h-6.1v20.3c-0.4 0-0.8 0.1-1.2 0.1s-0.8 0.1-1.2 0.1s-0.8 0-1.2 0s-0.9-0.1-1.3-0.1L208.2 15.6L208.2 15.6z" class="branding__text"/><path d="M222.7 11.4c0.8-0.1 1.7-0.2 2.5-0.2s1.7 0.1 2.5 0.2v24.5c-0.9 0.1-1.7 0.2-2.5 0.2s-1.7-0.1-2.5-0.2V11.4z " class="branding__text"/><path d="M248.7 31.3c0.3 0.6 0.5 1.3 0.7 2s0.3 1.3 0.4 2c-1.2 0.4-2.2 0.7-3.2 0.9c-0.9 0.1-2 0.2-3.1 0.2 c-1.9 0-3.6-0.3-5.1-0.9c-1.5-0.6-2.7-1.5-3.7-2.6c-1-1.1-1.7-2.5-2.2-4s-0.8-3.2-0.8-5.1c0-1.8 0.3-3.5 0.8-5.1s1.3-2.9 2.3-4 s2.2-2 3.7-2.7c1.4-0.6 3.1-1 4.9-1c1.1 0 2.1 0.1 3 0.2c0.9 0.1 1.9 0.4 3 0.9c0 0.7-0.2 1.3-0.4 2c-0.2 0.6-0.5 1.3-0.8 2 c-0.8-0.3-1.5-0.5-2.1-0.6s-1.3-0.2-2.2-0.2c-2.2 0-3.9 0.7-5 2.1c-1.2 1.4-1.8 3.5-1.8 6.3c0 5.6 2.4 8.3 7.1 8.3 c0.8 0 1.6-0.1 2.2-0.2C247.2 31.8 248 31.6 248.7 31.3" class="branding__text"/><path d="M253.6 11.4h13.9c0.1 0.7 0.2 1.4 0.2 2.1c0 0.8-0.1 1.5-0.2 2.2h-8.9V21h7.1c0.1 0.7 0.2 1.4 0.2 2.1 s-0.1 1.4-0.2 2.2h-7.1v6.5h9.2c0.1 0.7 0.2 1.4 0.2 2.1c0 0.8-0.1 1.5-0.2 2.2h-14.2L253.6 11.4L253.6 11.4z" class="branding__text"/><path d="M157.1 12.8v-1.3c-0.9-0.1-1.7-0.2-2.5-0.2s-1.6 0.1-2.5 0.2v1.3v2.9v12.1v1c0 0.8-0.1 1.5-0.4 1.9 c-0.2 0.4-0.5 0.8-0.9 1s-0.7 0.4-1.2 0.4c-0.4 0-0.8 0.1-1.2 0.1c-0.3 0-0.6 0-0.9-0.1c-0.3-0.1-0.6-0.1-0.8-0.2 c-0.4 1-0.6 2.1-0.6 3.1c0 0.2 0 0.4 0 0.5c0 0.2 0 0.3 0.1 0.5c0.5 0.1 1.1 0.2 1.7 0.3c0.6 0.1 1.1 0.1 1.5 0.1 c1.1 0 2.1-0.1 3.1-0.4c0.9-0.2 1.8-0.7 2.5-1.2c0.7-0.6 1.2-1.3 1.6-2.2c0.4-0.9 0.6-1.9 0.6-3.2L157.1 12.8L157.1 12.8z" class="branding__text"/><path d="M22 19.4L22 19.4L22 19.4" class="branding__circle"/><path d="M25.9 32.6c0.5-0.1 1-0.2 1.4-0.3c0.1-0.4 0.5-1.3 0.8-1.9l-1.3 0.3C26.5 31.2 26.1 32.2 25.9 32.6" class="branding__circle"/><path d="M41.5 20.3c-0.1 0-0.9 0.4-1.7 0.7c-0.5 0.2-0.8 0.3-1.1 0.7c-2.9 5.1-8.8 7.4-9.4 7.7 c0 0.1-0.1 0.2-0.1 0.2c-0.2 0.4-0.6 1.8-0.7 2.3c1.7-0.4 2.9-0.7 3-0.7s0.1-0.1 0.2-0.2c0.1-0.3-0.1-1.5 1.8-2 c1.5-0.5 2.9 0.4 3.4 1.5c0.5 1.3 0.2 2.8-1 3.3c-1.1 0.5-2.2 0.6-3 0.1c-0.3-0.2-0.7-0.7-0.9-1c0 0-0.1-0.1-0.2-0.1 c-0.5 0.1-2.4 0.6-4 1c0 0.1 0 0.2 0 0.3c-0.1 0.3-0.3 0.5-0.5 0.4c0 0-0.1 0-0.1-0.1c-0.1 0.2-0.3 0.4-0.5 0.3 c-0.2 0-0.3-0.3-0.3-0.6c0 0 0 0 0-0.1c-0.4 0.1-0.7 0.2-0.9 0.2c-0.1 0-0.1 0-0.2 0.1c0 0.1 0 0.2 0 0.3c-0.1 0.3-0.3 0.5-0.5 0.4 c-0.1 0-0.2-0.1-0.2-0.2c-0.1 0.2-0.3 0.3-0.4 0.3c-0.2 0-0.3-0.2-0.3-0.5c-0.4 0.1-1.6 0.3-1.8 0.4c-0.4 0.1-0.4 0.1-0.3 0.5 c0.1 0.2 0.3 1.3 0.4 1.5c0.1 0.3 0 0.4-0.2 0.4s-1.2 0.2-1.4 0.3c-0.2 0.1-0.3 0-0.3-0.2c-0.1-0.3-0.3-1.4-0.4-1.7 c-0.1-0.5-0.7-0.1-1.1-0.1s-0.3 0.3-0.3 0.6c0.1 0.3 0.3 1 0.4 1.3c0 0.1 0 0.2 0 0.3L18.8 38c-0.2 0.1-1.5 0.4-1.7 0.4 s-0.3-0.2-0.3-0.3c-0.1-0.5-0.5-1.8-0.6-2.2c0-0.2-0.1-0.4-0.2-0.6c-0.1-0.4 0.1-0.6 0.4-0.7c0.3-0.1 4.1-1 7.8-1.8 c0.1-0.2 0.3-0.4 0.4-0.7c0.2-0.4 0.5-0.9 0.7-1.4h-0.2c-0.2 0-4.8 0.3-6.5 0.1c-0.8-0.1-1.5 0-2.2 0.1c-1.1 0.2-7.2 1.7-8.4 1.6 c-0.9-0.1 0.6-0.4 0-1c-0.3-0.4 1.5-0.6 1-0.9c-0.6-0.3 3.4-1 5.8-1.4c2.6-0.4 5.2-2.1 5-2.2c-0.3-0.1-2.9-0.8-3.2-1 c-0.4-0.3-0.2-0.8 0.2-1c0 0 0.1 0 0.1-0.1c-3-0.2-3.9-0.5-5.2-1.5c-0.1-0.1-0.1-0.2 0.1-0.3c0.1 0 0.6-0.3 0.7-0.3c0 0 0 0 0-0.1 c-0.1 0-0.2-0.1-0.3-0.1c-0.4 0-3.2-0.2-5-1.1c-0.1-0.1-0.1-0.3 0-0.4c0.1-0.2 0.1-0.3-0.1-0.3c-0.2-0.1-3.7-1.4-4.2-1.7 C3.1 19.5 2.8 19.5 3 19c0.2-0.4 1.1-0.2 2.7 0.3s6.3 0.8 8.4 0.5c0.8-0.1 1.2-0.2 1.8-0.3c2.4-0.4 6.1-0.1 6.1-0.1 c0.7 0 1.7 0.1 2.8 0.4c1.2 0.2 2.4 0.5 3.5 1c0.1 0 0.2 0.1 0.3 0.1c0.1 0 0.2 0.1 0.3 0.1c0.2 0.1 0.3 0.1 0.5 0.2 c0 0 0.1 0 0.1 0.1h0.1c0.1 0 0.1 0 0.2-0.1c0.9-1.4 1.7-2.4 2.1-2.9c0.6-0.6 1.7-1.4 3.1-1.5c1.3-0.1 2.4 0.6 2.8 1 c0.5 0.5 1 1.2 1 1.4c0 0.1 0.1 0.1 0.1 0.2c0.3 0.2 2.4 0.7 2.4 0.7C41.5 20 41.9 20.1 41.5 20.3" class="branding__bird"/><path d="M12.2 10.4c0.4-0.3 1 0.3 2.2 1.5s5.2 3.6 7.2 4.3s2.7 0.8 4.4 1.6c1.2 0.5 3.2 1.3 3.5 2.1 c-0.1 0.2-0.2 0.3-0.3 0.4c-5-2-7.9-1.8-10.5-1.9c-0.3-0.2-0.7-0.5-0.9-0.6c-0.5-0.3-0.9-0.7-1.3-1s-0.8-0.6-1.1-1 c-0.2-0.2-0.3-0.4-0.4-0.6c-0.1-0.1 0.1-0.3 0.2-0.4c0.2-0.1 0.2-0.2 0.1-0.3c-0.1-0.1-0.3-0.3-0.5-0.4c-0.3-0.3-0.5-0.6-0.7-0.9 c-0.3-0.3-0.5-0.6-0.8-0.9c-0.3-0.4-0.7-0.7-1-1.2C12.1 10.8 11.8 10.7 12.2 10.4" class="branding__bird"/><path d="M34.7 32.6c0.6-0.1 1-0.6 0.9-1.2c-0.1-0.6-0.6-1-1.2-0.9c-0.6 0.1-1 0.6-0.9 1.2S34.1 32.7 34.7 32.6" class="branding__circle"/><path d="M144.1 26.9V25c-0.2 0-0.4-0.1-0.6-0.1c-0.2 0-0.4 0-0.6 0.1v1.9h-1.6v-2.5c-0.2 0-0.4-0.1-0.6-0.1 c-0.2 0-0.4 0-0.6 0.1v3.8h6.7c0-0.2 0.1-0.5 0.1-0.7s0-0.4-0.1-0.7h-2.7V26.9z" class="branding__text"/><path d="M141.9 19.4c0.4-0.2 1-0.4 1.7-0.4c1.5 0 2.3 0.5 2.3 1.4c0 1-0.8 1.5-2.3 1.5s-2.3-0.5-2.3-1.5 C141.3 20 141.5 19.6 141.9 19.4 M141.1 22.7c0.3 0.2 0.7 0.4 1.1 0.5c0.4 0.1 0.9 0.2 1.4 0.2s1-0.1 1.4-0.2s0.8-0.3 1.1-0.5 s0.6-0.5 0.7-0.9c0.2-0.4 0.3-0.8 0.3-1.3c0-0.5-0.1-0.9-0.3-1.3s-0.4-0.7-0.7-0.9c-0.3-0.2-0.7-0.4-1.1-0.5 c-0.4-0.1-0.9-0.2-1.4-0.2s-1 0.1-1.4 0.2s-0.8 0.3-1.1 0.5s-0.6 0.5-0.7 0.9c-0.2 0.4-0.3 0.8-0.3 1.3c0 0.5 0.1 0.9 0.3 1.3 S140.8 22.5 141.1 22.7" class="branding__text"/><path d="M141.3 13.9c0-0.1 0.1-0.3 0.2-0.4c0.1-0.1 0.2-0.2 0.4-0.3s0.4-0.1 0.6-0.1c0.2 0 0.4 0 0.6 0.1 c0.2 0.1 0.3 0.2 0.4 0.3c0.1 0.1 0.2 0.2 0.2 0.4s0.1 0.3 0.1 0.5v0.2c0 0.1 0 0.1 0 0.2h-2.4c0-0.1 0-0.2 0-0.3s0-0.1 0-0.2 C141.2 14.2 141.3 14.1 141.3 13.9 M140.2 16.2h6.8c0-0.1 0-0.2 0-0.4c0-0.1 0-0.2 0-0.3s0-0.2 0-0.3s0-0.2 0-0.3h-2.2 c0-0.1 0-0.1 0-0.2c0-0.1 0-0.1 0-0.2c0-0.1 0-0.3 0-0.4l2.2-1.2c0-0.2 0.1-0.5 0.1-0.7c0-0.1 0-0.3 0-0.4c0-0.1 0-0.3 0-0.4 l-2.5 1.5c0 0 0-0.1-0.1-0.1c-0.2-0.3-0.4-0.5-0.7-0.6c-0.3-0.2-0.7-0.2-1.2-0.2s-0.9 0.1-1.2 0.2c-0.3 0.2-0.5 0.4-0.7 0.6 c-0.2 0.3-0.3 0.5-0.4 0.9c-0.1 0.3-0.1 0.6-0.1 0.9c0 0.3 0 0.6 0 0.9C140.2 15.6 140.2 15.9 140.2 16.2" class="branding__text"/></svg>